<svg width="32" height="32" viewBox="0 0 32 32" fill="none" xmlns="http://www.w3.org/2000/svg">
  <path d="M16 0C7.164 0 0 7.164 0 16s7.164 16 16 16 16-7.164 16-16S24.836 0 16 0zm-5.333 20.333c-2.389 0-4.333-1.944-4.333-4.333s1.944-4.333 4.333-4.333a4.32 4.32 0 013.797 2.266h2.87A7.09 7.09 0 0010.667 9C6.627 9 3.333 12.294 3.333 16.334c0 4.04 3.294 7.333 7.334 7.333a7.09 7.09 0 006.667-4.6h-2.87a4.32 4.32 0 01-3.797 2.266zm15.333-4c0-4.04-3.294-7.333-7.333-7.333a7.09 7.09 0 00-6.667 4.6h2.87a4.32 4.32 0 013.797-2.267c2.389 0 4.333 1.944 4.333 4.333s-1.944 4.333-4.333 4.333a4.32 4.32 0 01-3.797-2.266h-2.87A7.09 7.09 0 0021.333 23C25.373 23 28.667 19.706 28.667 16.666v-.333z" fill="#FCFF52"/>
</svg> 