<svg width="28" height="28" viewBox="0 0 28 28" fill="none" xmlns="http://www.w3.org/2000/svg">
  <rect width="28" height="28" fill="#2C5FF6"/>
  <path d="M14 5.5C19.2467 5.5 23.5 9.75329 23.5 15C23.5 20.2467 19.2467 24.5 14 24.5C8.75329 24.5 4.5 20.2467 4.5 15C4.5 9.75329 8.75329 5.5 14 5.5Z" fill="white"/>
  <path d="M11.5263 11.2632H16.4737C16.7645 11.2632 17 11.4987 17 11.7895V16.7368C17 17.0276 16.7645 17.2632 16.4737 17.2632H11.5263C11.2355 17.2632 11 17.0276 11 16.7368V11.7895C11 11.4987 11.2355 11.2632 11.5263 11.2632Z" fill="#2C5FF6"/>
</svg> 