<svg xmlns="http://www.w3.org/2000/svg" width="212" height="189" viewBox="0 0 212 189">
  <g fill="none" fill-rule="evenodd">
    <polygon fill="#E17726" stroke="#E17726" stroke-linecap="round" stroke-linejoin="round" points="25.68 0 88.733 35.033 75.83 17.1"/>
    <polygon fill="#E27625" stroke="#E27625" stroke-linecap="round" stroke-linejoin="round" points="185.406 0 122.889 35.481 135.255 17.1"/>
    <polygon fill="#E27625" stroke="#E27625" stroke-linecap="round" stroke-linejoin="round" points="38.194 138.539 0 138.539 15.729 169.325 36.094 157.865"/>
    <polygon fill="#E27625" stroke="#E27625" stroke-linecap="round" stroke-linejoin="round" points="173.892 138.539 211.55 138.539 195.821 169.325 175.456 157.865"/>
    <polygon fill="#E27625" stroke="#E27625" stroke-linecap="round" stroke-linejoin="round" points="75.83 17.1 88.733 35.033 93.006 93.589 80.103 82.129 75.83 17.1"/>
    <polygon fill="#E27625" stroke="#E27625" stroke-linecap="round" stroke-linejoin="round" points="135.255 17.1 122.889 35.481 118.616 93.589 131.519 82.129 135.255 17.1"/>
    <polygon fill="#E27625" stroke="#E27625" stroke-linecap="round" stroke-linejoin="round" points="80.103 82.129 93.006 93.589 80.103 138.539 80.103 82.129"/>
    <polygon fill="#E27625" stroke="#E27625" stroke-linecap="round" stroke-linejoin="round" points="131.519 82.129 118.616 93.589 131.519 138.539 131.519 82.129"/>
    <polygon fill="#F5841F" stroke="#F5841F" stroke-linecap="round" stroke-linejoin="round" points="80.103 138.539 93.006 93.589 118.616 93.589 131.519 138.539 80.103 138.539"/>
    <polygon fill="#C0AC9D" stroke="#C0AC9D" stroke-linecap="round" stroke-linejoin="round" points="0 138.539 15.729 169.325 36.094 157.865 38.194 138.539 0 138.539"/>
    <polygon fill="#C0AC9D" stroke="#C0AC9D" stroke-linecap="round" stroke-linejoin="round" points="173.892 138.539 211.55 138.539 195.821 169.325 175.456 157.865 173.892 138.539"/>
    <polygon fill="#161616" stroke="#161616" stroke-linecap="round" stroke-linejoin="round" points="80.103 138.539 93.006 93.589 118.616 93.589 131.519 138.539 80.103 138.539"/>
    <polygon fill="#763E1A" stroke="#763E1A" stroke-linecap="round" stroke-linejoin="round" points="25.68 0 75.83 17.1 80.103 82.129 38.194 138.539 25.68 0"/>
    <polygon fill="#763E1A" stroke="#763E1A" stroke-linecap="round" stroke-linejoin="round" points="185.406 0 135.255 17.1 131.519 82.129 173.892 138.539 185.406 0"/>
  </g>
</svg> 